===========Visit DUSTorrents.com for more Exclusives==============

Visit DusTorrents.com for more exclusives....

DusTorrents.com a Complete FreeLeech Site!! Registrations are absolutely FREE!!

Register by visiting..... [url]http://www.dustorrents.com/register.php[/url]

========================================================

[CENTER][FONT=Comic Sans MS][SIZE=5][COLOR="#FF0000"][B]Aandhi (1975) 1/3 DvD RiP XviD 5.1 AC3 [Team DUS] 3rd Anniversary Release[/B][/COLOR][/SIZE][/FONT]

[img]http://img834.imageshack.us/img834/7674/dus5.png[/img]

[img]http://s.chakpak.com/se_images/10420_-1_564_none/aandhi-2.jpg[/img][/CENTER]

[CODE]
[B][FONT=Comic Sans MS][COLOR="#FF0000"]Source                           : DvD 9 @ DDR Thanks.
Ripper                           : I Proud To Be An Indian [Team DUS][/COLOR][/FONT][/B]
General
Complete name                    : D:\Download\Aandhi (1975) DvD RiP XviD 5.1 AC3 [Team DUS} 3rd Anniversary Release\Aandhi (1975) DvD RiP XviD 5.1 AC3 [Team DUS} 3rd Anniversary Release.avi
Format                           : AVI
Format/Info                      : Audio Video Interleave
File size                        : 1.45 GiB
Duration                         : 2h 11mn
Overall bit rate                 : 1 576 Kbps

Video
ID                               : 0
Format                           : MPEG-4 Visual
Format profile                   : Advanced Simple@L5
Format settings, BVOP            : 2
Format settings, QPel            : Yes
Format settings, GMC             : No warppoints
Format settings, Matrix          : Default (H.263)
Codec ID                         : XVID
Codec ID/Hint                    : XviD
Duration                         : 2h 11mn
Bit rate                         : 1 184 Kbps
Width                            : 656 pixels
Height                           : 480 pixels
Display aspect ratio             : 4:3
Frame rate                       : 29.970 fps
Color space                      : YUV
Chroma subsampling               : 4:2:0
Bit depth                        : 8 bits
Scan type                        : Progressive
Compression mode                 : Lossy
Bits/(Pixel*Frame)               : 0.125
Stream size                      : 1.09 GiB (75%)
Writing library                  : XviD 1.2.1 (UTC 2008-12-04)

Audio
ID                               : 1
Format                           : AC-3
Format/Info                      : Audio Coding 3
Mode extension                   : CM (complete main)
Codec ID                         : 2000
Duration                         : 2h 11mn
Bit rate mode                    : Constant
Bit rate                         : 384 Kbps
Channel(s)                       : 6 channels
Channel positions                : Front: L C R, Side: L R, LFE
Sampling rate                    : 48.0 KHz
Bit depth                        : 16 bits
Compression mode                 : Lossy
Stream size                      : 362 MiB (24%)
Alignment                        : Aligned on interleaves
Interleave, duration             : 64 ms (1.92 video frames)
Interleave, preload duration     : 192 ms
Title                            : VTS_02_1 T80 3_2ch 384Kbps DELAY 0ms[/CODE]

[center][img]http://img21.imageshack.us/img21/3431/5vh6rom324kkccccthg.gif[/img]

[img]http://img820.imageshack.us/img820/7262/vlcsnap2011081120h13m59.png[/img]

[img]http://img6.imageshack.us/img6/5296/vlcsnap2011081120h15m25.png[/img]

[img]http://img194.imageshack.us/img194/5482/vlcsnap2011081120h18m51.png[/img]

[img]http://img845.imageshack.us/img845/4273/vlcsnap2011081120h20m17.png[/img]

[img]http://img96.imageshack.us/img96/5818/vlcsnap2011081120h20m23.png[/img]

[img]http://img51.imageshack.us/img51/9395/vlcsnap2011081120h20m47.png[/img]

[img]http://img97.imageshack.us/img97/7850/vlcsnap2011081120h21m01.png[/img]

[img]http://img835.imageshack.us/img835/423/vlcsnap2011081120h21m26.png[/img]

:groupwave:[/center]